<svg xmlns="http://www.w3.org/2000/svg" width="900" height="520" viewBox="0 0 900 520"><rect width="900" height="520" fill="#302020"/><rect y="380" width="900" height="140" fill="rgba(0,0,0,.25)"/><circle cx="710" cy="130" r="90" fill="rgba(255,255,255,.08)"/><path d="M70 410 C190 300 270 360 380 250 S610 190 830 100" fill="none" stroke="rgba(255,255,255,.35)" stroke-width="8"/><g fill="rgba(255,255,255,.12)"><rect x="40" y="220" width="45" height="230"/><rect x="115" y="192" width="45" height="230"/><rect x="190" y="164" width="45" height="230"/><rect x="265" y="136" width="45" height="230"/><rect x="340" y="220" width="45" height="230"/><rect x="415" y="192" width="45" height="230"/><rect x="490" y="164" width="45" height="230"/><rect x="565" y="136" width="45" height="230"/><rect x="640" y="220" width="45" height="230"/><rect x="715" y="192" width="45" height="230"/></g><text x="50" y="465" fill="white" font-family="Arial" font-size="34" font-weight="700">Haber V1 Demo Görsel 13</text></svg>